<svg xmlns="http://www.w3.org/2000/svg" data-name="Layer 1" viewBox="0 0 512 512" x="0px" y="0px">
  <path
    d="M408.64941,172.2561c-10.02197-1.50214-19.92041,.54889-28.7312,4.00726,5.9021,4.09674,11.63647,8.5788,17.12915,13.40588,11.57666-5.93201,25.94043-10.48584,40.79346-8.26227,1.91113,.28638,3.22949,2.06812,2.94238,3.97998-.28516,1.91113-2.05957,3.23169-3.97949,2.94287-12.16357-1.82208-24.14697,1.58386-34.22021,6.39392,12.58936,11.9646,23.68188,25.75427,32.29126,40.7511,4.26099,7.42212,15.26318,6.46539,18.00806-1.64062,17.03418-50.30286,28.27832-112.30743,17.12305-177.51782-1.63623-9.56464-11.84863-15.10736-20.65405-11.0304-25.31274,11.71997-51.92847,30.73114-74.28833,53.4325-10.53516,10.69598-19.80029,21.84772-27.56641,33.06274-6.47241,9.3465-3.9624,21.89026,4.87085,28.33057,12.61548-8.36011,31.62427-17.50836,51.47974-14.53516,1.91211,.28638,3.22949,2.06836,2.94238,3.97998-.28613,1.91113-2.05762,3.23193-3.97949,2.94287-16.1416-2.41882-31.96729,4.3703-43.43066,11.43219,4.57471,2.33643,9.10498,4.90863,13.55859,7.70892,10.80176-4.92065,23.58691-8.27838,36.74805-6.30737,1.91211,.28638,3.22949,2.06836,2.94238,3.97998-.28613,1.91113-2.05566,3.23169-3.97949,2.94287Z"
    fill="#813838" />
  <path
    d="M136.93652,98.71851c-22.35986-22.70135-48.97559-41.71252-74.28833-53.4325-8.80542-4.07697-19.01782,1.46576-20.65405,11.0304-11.15527,65.21039,.08887,127.21497,17.12305,177.51782,2.74487,8.10602,13.74707,9.06274,18.00806,1.64062,8.60962-14.99719,19.70239-28.78711,32.29224-40.75189-10.073-4.81067-22.05591-8.21698-34.22119-6.39313-1.91602,.28857-3.69336-1.03174-3.97949-2.94287-.28711-1.91187,1.03125-3.6936,2.94238-3.97998,14.84692-2.22437,29.21289,2.33044,40.79224,8.26343,5.49243-4.82721,11.22729-9.30951,17.12915-13.40637-8.81152-3.45862-18.71021-5.50995-28.72998-4.00793-1.91992,.28857-3.69336-1.03174-3.97949-2.94287-.28711-1.91162,1.03027-3.6936,2.94238-3.97998,13.16284-1.97247,25.948,1.38544,36.74951,6.30658,4.45288-2.79999,8.98242-5.37189,13.55713-7.70807-11.46509-7.06232-27.29297-13.85187-43.43066-11.43225-1.91797,.28882-3.69336-1.03174-3.97949-2.94287-.28711-1.91162,1.03027-3.6936,2.94238-3.97998,19.85693-2.9754,38.86572,6.17407,51.48047,14.53461,8.83252-6.44049,11.34229-18.98376,4.87012-28.33002-7.76611-11.21503-17.03125-22.36676-27.56641-33.06274Z"
    fill="#813838" />
  <path
    d="M297.02441,363.25635c0-22.125-29.80469-22.125-41.02441-22.125s-41.02441,0-41.02441,22.125c0,16.99146,16.96948,37.53375,37.52441,39.67596v11.46582c-16.81519,11.66736-37.61865,16.64209-53.47559,12.65558-5.7002-1.43286-13.26562-4.73706-16.93555-12.34082-.84082-1.73999-2.93164-2.47217-4.67383-1.63037-1.74121,.84033-2.4707,2.93262-1.63086,4.67334,3.83691,7.94702,11.2832,13.50977,21.53418,16.08667,1.24292,.31256,2.51782,.56427,3.80957,.78119,3.49146,27.2226,26.72412,48.25629,54.87207,48.25629,28.14941,0,51.38281-21.03552,54.87256-48.25995,1.29102-.2168,2.56689-.46521,3.80908-.77753,10.25098-2.5769,17.69727-8.13965,21.53418-16.08667,.83984-1.74072,.11035-3.83301-1.63086-4.67334-1.74121-.84131-3.83398-.10962-4.67383,1.63037-3.66992,7.60376-11.23633,10.90796-16.93652,12.34106-15.85596,3.98602-36.66211-.98932-53.47461-12.6557v-11.46594c20.55493-2.14221,37.52441-22.68451,37.52441-39.67596Zm-41.02441,32.87134c-13.43652,0-34.02441-14.72632-34.02441-32.87134,0-7.04199,3.86719-15.125,34.02441-15.125s34.02441,8.08301,34.02441,15.125c0,18.14502-20.58789,32.87134-34.02441,32.87134Z"
    fill="#ad4a4a" />
  <path
    d="M349.12012,268.75049c-15.24902,0-27.6543,12.40576-27.6543,27.65454s12.40527,27.65454,27.6543,27.65454,27.65527-12.40576,27.65527-27.65454-12.40625-27.65454-27.65527-27.65454Zm17.28687,17.245c-4.67944-3.17853-10.5332-4.75714-16.77686-3.94806-9.78857,1.26837-17.9248,8.59589-20.23755,18.19153-.01782,.07416-.0354,.14825-.05249,.22235-.08228,.35547-.14868,.71222-.20435,1.06934-.42188-1.64233-.66992-3.35352-.66992-5.12561,0-11.38892,9.26562-20.65454,20.6543-20.65454,7.87354,0,14.72729,4.4306,18.21143,10.92682-.29785-.23779-.60596-.46545-.92456-.68182Z"
    fill="#131359" />
  <path
    d="M135.22461,296.40503c0,15.24878,12.40625,27.65454,27.65527,27.65454s27.6543-12.40576,27.6543-27.65454-12.40527-27.65454-27.6543-27.65454-27.65527,12.40576-27.65527,27.65454Zm27.65527-20.65454c7.87256,0,14.72607,4.43042,18.21045,10.92645-.29785-.23761-.60571-.46521-.92407-.68146-4.67969-3.17853-10.5332-4.75714-16.7771-3.94806-9.78857,1.26837-17.9248,8.59589-20.2373,18.19153-.01807,.07416-.0354,.14825-.05273,.22235-.08228,.35577-.14844,.71277-.20435,1.07013-.42188-1.64258-.67017-3.35406-.67017-5.1264,0-11.38892,9.26562-20.65454,20.65527-20.65454Z"
    fill="#131359" />
  <path
    d="M457.85156,320.84717c5.20215-1.72876,9.90527-2.24854,14.26465-1.5896,1.20508,.18213,2.41699-.27515,3.20117-1.20679,.78418-.93188,1.02734-2.20459,.64258-3.36011-2.72559-8.1814-8.96094-15.93237-19.0293-23.63501,29.26562-63.5957,58.11523-159.88379,32.87695-262.16504-1.43164-5.80005-5.0918-10.61963-10.30566-13.57056-5.17285-2.92725-11.39746-3.60327-17.0791-1.85352-31.04297,9.56152-64.46484,29.81616-94.11035,57.03271-24.93457,22.89136-44.88696,48.72321-57.51904,74.20007-10.82324-3.63629-23.87158-5.91681-38.94385-6.82513-.04663-.00507-.09277-.00476-.13965-.00793-4.91211-.29303-10.02881-.44733-15.36523-.44733h-.68164c-21.77979,0-40.07617,2.44897-54.45605,7.28027-12.63281-25.47681-32.58496-51.30847-57.51855-74.19971C114.04297,43.28271,80.62012,23.02808,49.57715,13.46655c-5.68262-1.75049-11.90625-1.07373-17.0791,1.85352-5.21387,2.95093-8.87402,7.77051-10.30566,13.57056-25.23828,102.28125,3.61133,198.56934,32.87695,262.16504-10.06738,7.70166-16.30371,15.45239-19.0293,23.63501-.38574,1.15552-.1416,2.42822,.64258,3.36011,.78516,.93188,1.99707,1.38892,3.20117,1.20679,4.3623-.65991,9.0625-.13916,14.26367,1.5896-13.44434,11.61572-21.6377,21.2251-26.27441,30.73242-.5332,1.09277-.46094,2.38403,.19043,3.4104,.64258,1.01221,1.75781,1.62402,2.95508,1.62402,.0166,0,.0332,0,.05078-.00024,6.38281-.10547,13.33887,2.19019,21.10449,6.96436-8.00391,10.1416-14.02148,21.61401-17.91211,34.15747-.34082,1.09961-.12012,2.29663,.59277,3.20142,.71191,.9043,1.79688,1.40259,2.97266,1.32837,10.93555-.69434,18.72559,1.78735,23.73535,7.58691-2.57129,14.80347-11.15918,27.16284-26.91406,38.78662-1.10059,.81226-1.62695,2.19141-1.34863,3.53052,.2793,1.33936,1.31348,2.39331,2.64746,2.698,13.14258,3.00269,26.73438,4.62354,38.62012,4.62354,.94531,0,1.87988-.01025,2.80273-.03076,1.93262-.04346,3.46387-1.64502,3.4209-3.57739-.04395-1.93359-1.68945-3.46436-3.57715-3.4209-9.83594,.21948-21.13379-.80322-32.42578-2.90918,14.04688-11.88623,21.70605-24.79907,23.93848-40.18018,.13379-.92212-.10547-1.85986-.66504-2.60474-5.58496-7.43457-14.16504-11.32422-25.55273-11.59741,4.03223-11.0896,9.91113-21.20557,17.51562-30.12769,.64453-.7561,.93652-1.75049,.80469-2.73535-.13184-.98462-.67578-1.86694-1.49707-2.42651-8.08105-5.51025-15.52344-8.76465-22.58496-9.85571,5.13574-8.17725,13.6543-17.07373,26.35547-27.57983,.92969-.76904,1.39746-1.96216,1.23926-3.15796-.15918-1.1958-.92285-2.22534-2.02051-2.72485-6.25977-2.84766-12.01758-4.35718-17.44238-4.55933,3.2002-5.66333,8.68359-11.26611,16.61328-17.00146,1.36035-.98389,1.83105-2.79517,1.12109-4.31641C33.42285,228.15283,3.89453,132.26465,28.98926,30.56787c.96484-3.91138,3.43555-7.16309,6.95703-9.15576,3.55469-2.01245,7.66504-2.45874,11.57031-1.25562,30.06934,9.26147,62.54297,28.97168,91.4375,55.49927,29.52539,27.10693,51.84277,58.33325,62.84082,87.92676,.67383,1.81226,2.6875,2.73511,4.50098,2.06152,1.81152-.67334,2.73438-2.68823,2.06152-4.5-1.24048-3.33752-2.62671-6.69452-4.13721-10.06195,13.5376-4.41913,30.80688-6.66315,51.44971-6.66315h.66895c4.76367,0,9.33716,.12665,13.73853,.3645,20.20386,17.60791,14.88501,46.97253,8.71851,80.91064-4.16602,22.92798-8.47461,46.63623-6.01562,70.59668,1.02441,9.9917,6.8125,19.1189,15.4834,24.41528,49.01074,29.93433,73.82031,62.63696,75.84668,99.97729,.68652,12.63818,8.63184,23.79028,20.24219,28.41187,1.8877,.75122,3.8125,1.4165,5.88379,2.03418,.33398,.09937,.66992,.14673,1.00098,.14673,1.50781,0,2.90039-.98218,3.35352-2.50122,.55176-1.85229-.50195-3.80176-2.35449-4.354-1.87109-.55762-3.60352-1.15601-5.2959-1.82959-9.08301-3.61572-15.30078-12.36426-15.83984-22.2876-2.16113-39.81348-28.06348-74.34619-79.18848-105.57153-6.81641-4.16382-11.36523-11.32495-12.16895-19.15576-2.35645-22.97217,1.86133-46.18359,5.93945-68.63086,5.68408-31.27692,11.06592-60.99768-5.14819-81.34149,10.29126,1.08459,19.396,2.91571,27.24585,5.47821-1.51025,3.36719-2.89648,6.72394-4.13672,10.06128-.67383,1.81177,.24902,3.82666,2.06055,4.5,1.81055,.67334,3.82715-.24902,4.50098-2.06152,10.99805-29.59326,33.31543-60.81958,62.84082-87.92627,28.89551-26.52759,61.36816-46.23779,91.4375-55.49927,3.90527-1.20312,8.01562-.75684,11.57129,1.25562,3.52051,1.99268,5.99121,5.24438,6.95605,9.15552,25.09473,101.69702-4.43359,197.58521-33.62402,260.11768-.70996,1.52124-.23926,3.33252,1.12109,4.31641,7.92969,5.7356,13.41309,11.33911,16.61328,17.00146-5.4248,.20239-11.18359,1.71216-17.44336,4.55908-1.09766,.49951-1.86133,1.5293-2.02051,2.7251-.1582,1.1958,.30957,2.38916,1.23926,3.15796,12.70117,10.50562,21.21973,19.40234,26.35645,27.58008-7.06152,1.09106-14.50488,4.34546-22.58496,9.85522-.82129,.55981-1.36523,1.44214-1.49707,2.42676-.13184,.98486,.16016,1.97925,.80469,2.73535,7.60449,8.92212,13.4834,19.03809,17.51562,30.12769-11.38672,.27368-19.96777,4.16333-25.55273,11.59717-.55957,.74512-.79883,1.68286-.66504,2.60498,2.23145,15.37671,9.88965,28.28857,23.92969,40.17212-18.68262,3.44629-42.19531,4.82495-55.91992-1.28662-1.1709-.52173-2.53613-.36084-3.55664,.42188-1.01758,.78223-1.52637,2.05957-1.32324,3.32739,1.27637,7.99268,5.78809,14.78418,14.05762,21.03613-38.8291,14.12402-120.00488,19.45654-164.46094,19.45654s-125.63184-5.33276-164.46094-19.45654c7.36426-5.56787,11.74902-11.56396,13.52148-18.45581,9.47266-1.35742,16.5127-3.07446,22.58691-5.49268,11.61035-4.62134,19.55566-15.77344,20.24219-28.41187,2.02637-37.34009,26.83594-70.04272,75.84668-99.97729,8.6709-5.29614,14.45898-14.42334,15.4834-24.41504,2.45898-23.96045-1.84961-47.66919-6.01562-70.59717-4.2666-23.47974-8.29688-45.65747-3.15625-62.51416,.56348-1.84912-.47754-3.80493-2.32715-4.3689-1.84668-.56372-3.80371,.47852-4.36816,2.3269-5.63574,18.48022-1.45801,41.46899,2.96484,65.80762,4.07812,22.44751,8.29688,45.65918,5.93945,68.63135-.80371,7.83081-5.35254,14.99194-12.16895,19.15576-51.125,31.22534-77.02734,65.75806-79.18848,105.57129-.53906,9.92358-6.75684,18.67212-15.84082,22.28784-6.10938,2.43237-13.09961,4.04541-23.37305,5.3938-1.53613,.20142-2.75684,1.38843-3.00098,2.91772-1.19336,7.46875-6.39844,13.81201-16.37988,19.96289-1.10547,.6814-1.74316,1.91846-1.65625,3.21411s.88379,2.43652,2.07031,2.96387c20.49316,9.10815,55.63477,14.42651,81.50586,17.28442,29.31445,3.23877,63.62305,5.17188,91.77539,5.17188s62.46094-1.93311,91.77539-5.17139c25.87109-2.85791,61.0127-8.17676,81.50586-17.28491,1.18652-.52734,1.9834-1.66821,2.07031-2.96387s-.55078-2.53271-1.65625-3.21411c-7.13379-4.39648-11.82812-8.89111-14.36133-13.82422,17.33594,4.5813,41.93457,2.11768,60.71875-2.17407,1.33398-.30469,2.36816-1.35864,2.64746-2.698,.27832-1.33911-.24805-2.71826-1.34863-3.53052-15.75488-11.62378-24.34277-23.98315-26.91406-38.78662,5.00879-5.79883,12.78418-8.28223,23.73535-7.58691,1.16797,.07031,2.25977-.42432,2.97266-1.32837,.71289-.90479,.93359-2.10181,.59277-3.20142-3.89062-12.54346-9.9082-24.01587-17.91211-34.15747,7.76562-4.77368,14.66504-7.0625,21.10449-6.96436,.01758,.00024,.03418,.00024,.05078,.00024,1.19629,0,2.3125-.61182,2.95508-1.62402,.65137-1.02637,.72363-2.31763,.19043-3.4104-4.6377-9.50806-12.83008-19.11719-26.27539-30.73242Z"
    fill="#797167" />
</svg>